<svg width="24" height="37" viewBox="0 0 24 37" fill="none" xmlns="http://www.w3.org/2000/svg">
<g clip-path="url(#clip0_84_575)">
<path d="M4.28874 7.99297C4.37366 7.77624 4.42462 7.54217 4.42462 7.2821C4.42462 6.88332 4.30572 6.52788 4.11039 6.23313C4.13587 6.10309 4.14436 5.96439 4.14436 5.81701C4.14436 5.01945 3.75371 4.35192 3.21868 4.1612L2.89596 0L2.57324 4.1612C2.03821 4.36059 1.64755 5.02812 1.64755 5.81701C1.64755 5.95572 1.66453 6.09442 1.68152 6.23313C1.48619 6.51921 1.36729 6.88332 1.36729 7.2821C1.36729 7.53351 1.41825 7.77624 1.50318 7.99297L0.00848389 9.12863L0.433112 9.98688V12.5703L1.62207 13.4719V20.4159H2.88746H2.91294H4.16984V13.4719L5.3588 12.5703V9.98688L5.78343 9.12863L4.28874 7.99297Z" fill="#BFD3DD"/>
<path d="M0.891724 9.90884L2.04671 9.33667V11.7207L0.891724 11.9808V9.90884Z" fill="white"/>
<path d="M4.9002 9.90884L3.74521 9.33667V11.7207L4.9002 11.9808V9.90884Z" fill="white"/>
<path d="M3.43949 11.6947H2.36093V9.29333H3.43949V11.6947Z" fill="white"/>
<path d="M22.5053 7.99297C22.5902 7.77624 22.6412 7.54217 22.6412 7.2821C22.6412 6.88332 22.5223 6.52788 22.327 6.23313C22.3525 6.10309 22.3609 5.96439 22.3609 5.81701C22.3609 5.01945 21.9703 4.35192 21.4353 4.1612L21.1125 0L20.7898 4.1612C20.2548 4.36059 19.8641 5.02812 19.8641 5.81701C19.8641 5.95572 19.8811 6.09442 19.8981 6.23313C19.7028 6.51921 19.5839 6.88332 19.5839 7.2821C19.5839 7.53351 19.6348 7.77624 19.7198 7.99297L18.2251 9.12863L18.6497 9.98688V12.5703L19.8387 13.4719V20.4159H21.0956H21.121H22.3779V13.4719L23.5669 12.5703V9.98688L23.9915 9.12863L22.5053 7.99297Z" fill="#BFD3DD"/>
<path d="M19.1083 9.90884L20.2633 9.33667V11.7207L19.1083 11.9808V9.90884Z" fill="white"/>
<path d="M23.1253 9.90884L21.9618 9.33667V11.7207L23.1253 11.9808V9.90884Z" fill="white"/>
<path d="M21.656 11.6947H20.5775V9.29333H21.656V11.6947Z" fill="white"/>
<path d="M13.189 37L0 36.1851V19.6183L13.189 17.7025V37Z" fill="#129078"/>
<path d="M13.189 23.4328L0 24.6378V22.9733L13.189 21.4128V23.4328Z" fill="#FFC200"/>
<path d="M0 25.0625L1.75796 24.8978V26.0508L0 26.1722V25.0625Z" fill="#FFC200"/>
<path d="M3.55838 24.7331L6.08067 24.5078V25.7561L3.55838 25.9295V24.7331Z" fill="#FFC200"/>
<path d="M7.5499 24.343L10.2335 24.1089V25.4613L7.5499 25.6261V24.343Z" fill="#FFC200"/>
<path d="M13.189 23.8575V25.2706L12.1444 25.3313V23.9442L13.189 23.8575Z" fill="#FFC200"/>
<path d="M2.65817 25.7821L2.42038 25.4007L2.65817 25.0192L2.89596 25.4007L2.65817 25.7821Z" fill="#FFC200"/>
<path d="M6.53928 25.5133L6.26752 25.0972L6.53928 24.6898L6.81104 25.0972L6.53928 25.5133Z" fill="#FFC200"/>
<path d="M11.1847 25.1666L10.9044 24.7245L11.1847 24.2997L11.4735 24.7245L11.1847 25.1666Z" fill="#FFC200"/>
<path d="M13.189 35.3095L0 34.9281V33.9225L13.189 33.7231V35.3095Z" fill="white"/>
<path d="M13.189 37L0 36.1851V34.9281L13.189 35.3095V37Z" fill="#2D5950"/>
<path d="M13.189 37L23.8302 36.1851V19.6183L13.189 17.7025V37Z" fill="#13846F"/>
<path d="M13.189 23.4328L23.8302 24.6378V22.9733L13.189 21.4128V23.4328Z" fill="#C98B00"/>
<path d="M23.8301 25.0625L22.4034 24.8978V26.0508L23.8301 26.1722V25.0625Z" fill="#C98B00"/>
<path d="M20.9512 24.7331L18.9214 24.5078V25.7561L20.9512 25.9295V24.7331Z" fill="#C98B00"/>
<path d="M17.4607 24.343L15.431 24.1089V25.4613L17.4607 25.6261V24.343Z" fill="#C98B00"/>
<path d="M13.189 23.8575V25.2706L14.2251 25.3313V23.9442L13.189 23.8575Z" fill="#C98B00"/>
<path d="M21.6815 25.7821L21.8769 25.392L21.6815 25.0192L21.4862 25.392L21.6815 25.7821Z" fill="#C98B00"/>
<path d="M18.2336 25.5133L18.4374 25.0972L18.2336 24.6898L18.0212 25.0972L18.2336 25.5133Z" fill="#C98B00"/>
<path d="M14.896 25.1666L15.1507 24.7245L14.896 24.2997L14.6497 24.7245L14.896 25.1666Z" fill="#C98B00"/>
<path d="M13.189 35.3095L23.8302 34.9281V33.9225L13.189 33.7231V35.3095Z" fill="#D8D8D8"/>
<path d="M13.189 37L23.8302 36.1851V34.9281L13.189 35.3095V37Z" fill="#3E756A"/>
</g>
<defs>
<clipPath id="clip0_84_575">
<rect width="24" height="37" fill="white"/>
</clipPath>
</defs>
</svg>
