<svg width="47" height="47" viewBox="0 0 47 47" fill="none" xmlns="http://www.w3.org/2000/svg">
<g clip-path="url(#clip0_114_643)">
<path d="M8.97504 33.9203C6.95796 31.7779 5.875 29.375 5.875 25.4799C5.875 18.6257 10.6866 12.4824 17.6838 9.44507L19.4325 12.1437C12.9015 15.6765 11.6247 20.2609 11.1155 23.1514C12.1671 22.607 13.5438 22.4171 14.8931 22.5424C18.426 22.8694 21.2107 25.7697 21.2107 29.375C21.2107 31.1929 20.4886 32.9362 19.2032 34.2217C17.9178 35.5071 16.1744 36.2292 14.3565 36.2292C12.2552 36.2292 10.246 35.2696 8.97504 33.9203ZM28.5584 33.9203C26.5413 31.7779 25.4583 29.375 25.4583 25.4799C25.4583 18.6257 30.27 12.4824 37.2671 9.44507L39.0159 12.1437C32.4848 15.6765 31.208 20.2609 30.6988 23.1514C31.7505 22.607 33.1272 22.4171 34.4765 22.5424C38.0093 22.8694 40.794 25.7697 40.794 29.375C40.794 31.1929 40.0719 32.9362 38.7865 34.2217C37.5011 35.5071 35.7577 36.2292 33.9399 36.2292C31.8386 36.2292 29.8293 35.2696 28.5584 33.9203Z" fill="#13846F"/>
</g>
<defs>
<clipPath id="clip0_114_643">
<rect width="47" height="47" fill="white"/>
</clipPath>
</defs>
</svg>
